<?xml version="1.0" encoding="UTF-8" standalone="no"?>
<!DOCTYPE svg PUBLIC "-//W3C//DTD SVG 1.1//EN" "http://www.w3.org/Graphics/SVG/1.1/DTD/svg11.dtd">
<!-- 由 Microsoft Visio, SVG Export 生成 固定铰支座.svg 页-1 -->
<svg xmlns="http://www.w3.org/2000/svg" xmlns:xlink="http://www.w3.org/1999/xlink" xmlns:ev="http://www.w3.org/2001/xml-events"
		xmlns:v="http://schemas.microsoft.com/visio/2003/SVGExtensions/" width="0.369472in" height="0.262339in"
		viewBox="0 0 26.602 18.8884" xml:space="preserve" color-interpolation-filters="sRGB" class="st2">
	<v:documentProperties v:langID="2052" v:metric="true" v:viewMarkup="false"/>

	<style type="text/css">
	<![CDATA[
		.st1 {stroke:#000000;stroke-linecap:round;stroke-linejoin:round;stroke-width:0.75}
		.st2 {fill:none;fill-rule:evenodd;font-size:12px;overflow:visible;stroke-linecap:square;stroke-miterlimit:3}
	]]>
	</style>

	<g v:mID="0" v:index="1" v:groupContext="foregroundPage">
		<title>页-1</title>
		<v:pageProperties v:drawingScale="0.0393701" v:pageScale="0.0393701" v:drawingUnits="24" v:shadowOffsetX="8.50394"
				v:shadowOffsetY="-8.50394"/>
		<g id="shape1-1" v:mID="1" v:groupContext="shape" transform="translate(6.10097,-3.20629)">
			<title>工作表.1</title>
			<path d="M13.32 18.66 L7.09 3.58 L0 18.89" class="st1"/>
		</g>
		<g id="shape2-4" v:mID="2" v:groupContext="shape" transform="translate(0.375,-3.20631)">
			<title>工作表.2</title>
			<path d="M0 18.89 L25.85 18.89" class="st1"/>
		</g>
		<g id="shape3-7" v:mID="3" v:groupContext="shape" transform="translate(15.772,29.6051) rotate(135)">
			<title>工作表.3</title>
			<path d="M0 18.89 L2.22 18.89" class="st1"/>
		</g>
		<g id="shape4-10" v:mID="4" v:groupContext="shape" transform="translate(18.6067,29.6051) rotate(135)">
			<title>工作表.4</title>
			<path d="M0 18.89 L2.15 18.89" class="st1"/>
		</g>
		<g id="shape5-13" v:mID="5" v:groupContext="shape" transform="translate(20.8744,29.6051) rotate(135)">
			<title>工作表.5</title>
			<path d="M0 18.89 L2.5 18.89" class="st1"/>
		</g>
		<g id="shape6-16" v:mID="6" v:groupContext="shape" transform="translate(23.1421,29.6051) rotate(135)">
			<title>工作表.6</title>
			<path d="M0 18.89 L2.85 18.89" class="st1"/>
		</g>
		<g id="shape7-19" v:mID="7" v:groupContext="shape" transform="translate(25.0697,29.6051) rotate(135)">
			<title>工作表.7</title>
			<path d="M0 18.89 L2.26 18.89" class="st1"/>
		</g>
		<g id="shape8-22" v:mID="8" v:groupContext="shape" transform="translate(27.1106,29.6051) rotate(135)">
			<title>工作表.8</title>
			<path d="M0 18.89 L2.59 18.89" class="st1"/>
		</g>
		<g id="shape9-25" v:mID="9" v:groupContext="shape" transform="translate(29.9453,29.6051) rotate(135)">
			<title>工作表.9</title>
			<path d="M0 18.89 L2.83 18.89" class="st1"/>
		</g>
		<g id="shape10-28" v:mID="10" v:groupContext="shape" transform="translate(32.213,29.6051) rotate(135)">
			<title>工作表.10</title>
			<path d="M0 18.89 L2.22 18.89" class="st1"/>
		</g>
		<g id="shape11-31" v:mID="11" v:groupContext="shape" transform="translate(35.6146,29.8319) rotate(135)">
			<title>工作表.11</title>
			<path d="M0 18.89 L2.65 18.89" class="st1"/>
		</g>
		<g id="shape12-34" v:mID="12" v:groupContext="shape" transform="translate(33.6303,29.6051) rotate(135)">
			<title>工作表.12</title>
			<path d="M0 18.89 L1.47 18.89" class="st1"/>
		</g>
		<g id="shape13-37" v:mID="13" v:groupContext="shape" transform="translate(38.1091,29.6051) rotate(135)">
			<title>工作表.13</title>
			<path d="M0 18.89 L3.2 18.89" class="st1"/>
		</g>
	</g>
</svg>
